<mxfile host="app.diagrams.net" modified="2021-05-08T12:49:45.470Z" agent="5.0 (Windows)" etag="GIOelup5AJ3n_EsZkNDA" version="14.6.11" type="github">
  <diagram id="C5RBs43oDa-KdzZeNtuy" name="Page-1">
    <mxGraphModel dx="1038" dy="507" grid="1" gridSize="10" guides="1" tooltips="1" connect="1" arrows="1" fold="1" page="1" pageScale="1" pageWidth="827" pageHeight="1169" math="0" shadow="0">
      <root>
        <mxCell id="WIyWlLk6GJQsqaUBKTNV-0" />
        <mxCell id="WIyWlLk6GJQsqaUBKTNV-1" parent="WIyWlLk6GJQsqaUBKTNV-0" />
        <mxCell id="WIyWlLk6GJQsqaUBKTNV-6" value="企业注册申请" style="rhombus;whiteSpace=wrap;html=1;shadow=0;fontFamily=Helvetica;fontSize=12;align=center;strokeWidth=1;spacing=6;spacingTop=-4;comic=1;" parent="WIyWlLk6GJQsqaUBKTNV-1" vertex="1">
          <mxGeometry x="370" y="160" width="100" height="80" as="geometry" />
        </mxCell>
        <mxCell id="WIyWlLk6GJQsqaUBKTNV-10" value="管理员审核" style="rhombus;whiteSpace=wrap;html=1;shadow=0;fontFamily=Helvetica;fontSize=12;align=center;strokeWidth=1;spacing=6;spacingTop=-4;comic=1;" parent="WIyWlLk6GJQsqaUBKTNV-1" vertex="1">
          <mxGeometry x="370" y="320" width="100" height="80" as="geometry" />
        </mxCell>
        <mxCell id="cahAdQKOnGGWd3t3yXKj-0" value="开始" style="ellipse;whiteSpace=wrap;html=1;aspect=fixed;comic=1;" parent="WIyWlLk6GJQsqaUBKTNV-1" vertex="1">
          <mxGeometry x="395" y="70" width="50" height="50" as="geometry" />
        </mxCell>
        <mxCell id="cahAdQKOnGGWd3t3yXKj-4" value="" style="endArrow=classic;html=1;exitX=0.5;exitY=1;exitDx=0;exitDy=0;startArrow=none;comic=1;" parent="WIyWlLk6GJQsqaUBKTNV-1" source="cahAdQKOnGGWd3t3yXKj-10" target="WIyWlLk6GJQsqaUBKTNV-10" edge="1">
          <mxGeometry width="50" height="50" relative="1" as="geometry">
            <mxPoint x="620" y="310" as="sourcePoint" />
            <mxPoint x="670" y="260" as="targetPoint" />
          </mxGeometry>
        </mxCell>
        <mxCell id="cahAdQKOnGGWd3t3yXKj-5" value="" style="endArrow=classic;html=1;entryX=0.5;entryY=0;entryDx=0;entryDy=0;exitX=0.5;exitY=1;exitDx=0;exitDy=0;comic=1;" parent="WIyWlLk6GJQsqaUBKTNV-1" source="cahAdQKOnGGWd3t3yXKj-0" target="WIyWlLk6GJQsqaUBKTNV-6" edge="1">
          <mxGeometry width="50" height="50" relative="1" as="geometry">
            <mxPoint x="270" y="220" as="sourcePoint" />
            <mxPoint x="320" y="170" as="targetPoint" />
          </mxGeometry>
        </mxCell>
        <mxCell id="cahAdQKOnGGWd3t3yXKj-6" value="结束" style="ellipse;whiteSpace=wrap;html=1;aspect=fixed;" parent="WIyWlLk6GJQsqaUBKTNV-1" vertex="1">
          <mxGeometry x="395" y="470" width="50" height="50" as="geometry" />
        </mxCell>
        <mxCell id="cahAdQKOnGGWd3t3yXKj-10" value="提交申请" style="text;html=1;strokeColor=none;fillColor=none;align=center;verticalAlign=middle;whiteSpace=wrap;rounded=0;labelBackgroundColor=none;comic=1;" parent="WIyWlLk6GJQsqaUBKTNV-1" vertex="1">
          <mxGeometry x="395" y="270" width="50" height="20" as="geometry" />
        </mxCell>
        <mxCell id="cahAdQKOnGGWd3t3yXKj-13" value="" style="endArrow=none;html=1;exitX=0.5;exitY=1;exitDx=0;exitDy=0;comic=1;" parent="WIyWlLk6GJQsqaUBKTNV-1" source="WIyWlLk6GJQsqaUBKTNV-6" target="cahAdQKOnGGWd3t3yXKj-10" edge="1">
          <mxGeometry width="50" height="50" relative="1" as="geometry">
            <mxPoint x="420" y="240" as="sourcePoint" />
            <mxPoint x="420" y="320" as="targetPoint" />
          </mxGeometry>
        </mxCell>
        <mxCell id="cahAdQKOnGGWd3t3yXKj-14" value="&lt;div&gt;审核不通过&lt;/div&gt;" style="text;html=1;strokeColor=none;fillColor=none;align=center;verticalAlign=middle;whiteSpace=wrap;rounded=0;labelBackgroundColor=none;comic=1;" parent="WIyWlLk6GJQsqaUBKTNV-1" vertex="1">
          <mxGeometry x="486" y="270" width="70" height="20" as="geometry" />
        </mxCell>
        <mxCell id="cahAdQKOnGGWd3t3yXKj-20" value="" style="endArrow=classic;html=1;entryX=1;entryY=0.5;entryDx=0;entryDy=0;exitX=0.5;exitY=0;exitDx=0;exitDy=0;comic=1;" parent="WIyWlLk6GJQsqaUBKTNV-1" source="cahAdQKOnGGWd3t3yXKj-14" target="WIyWlLk6GJQsqaUBKTNV-6" edge="1">
          <mxGeometry width="50" height="50" relative="1" as="geometry">
            <mxPoint x="620" y="310" as="sourcePoint" />
            <mxPoint x="670" y="260" as="targetPoint" />
            <Array as="points">
              <mxPoint x="520" y="200" />
            </Array>
          </mxGeometry>
        </mxCell>
        <mxCell id="cahAdQKOnGGWd3t3yXKj-21" value="" style="endArrow=none;html=1;exitX=1;exitY=0.5;exitDx=0;exitDy=0;entryX=0.5;entryY=1;entryDx=0;entryDy=0;comic=1;" parent="WIyWlLk6GJQsqaUBKTNV-1" source="WIyWlLk6GJQsqaUBKTNV-10" target="cahAdQKOnGGWd3t3yXKj-14" edge="1">
          <mxGeometry width="50" height="50" relative="1" as="geometry">
            <mxPoint x="530" y="430" as="sourcePoint" />
            <mxPoint x="580" y="380" as="targetPoint" />
            <Array as="points">
              <mxPoint x="520" y="360" />
            </Array>
          </mxGeometry>
        </mxCell>
        <mxCell id="cahAdQKOnGGWd3t3yXKj-22" value="审核通过" style="text;html=1;strokeColor=none;fillColor=none;align=center;verticalAlign=middle;whiteSpace=wrap;rounded=0;labelBackgroundColor=none;comic=1;" parent="WIyWlLk6GJQsqaUBKTNV-1" vertex="1">
          <mxGeometry x="395" y="426" width="50" height="20" as="geometry" />
        </mxCell>
        <mxCell id="cahAdQKOnGGWd3t3yXKj-23" value="" style="endArrow=classic;html=1;exitX=0.5;exitY=1;exitDx=0;exitDy=0;entryX=0.5;entryY=0;entryDx=0;entryDy=0;comic=1;" parent="WIyWlLk6GJQsqaUBKTNV-1" source="cahAdQKOnGGWd3t3yXKj-22" target="cahAdQKOnGGWd3t3yXKj-6" edge="1">
          <mxGeometry width="50" height="50" relative="1" as="geometry">
            <mxPoint x="620" y="310" as="sourcePoint" />
            <mxPoint x="670" y="260" as="targetPoint" />
          </mxGeometry>
        </mxCell>
        <mxCell id="cahAdQKOnGGWd3t3yXKj-24" value="" style="endArrow=none;html=1;exitX=0.5;exitY=0;exitDx=0;exitDy=0;entryX=0.5;entryY=1;entryDx=0;entryDy=0;comic=1;" parent="WIyWlLk6GJQsqaUBKTNV-1" source="cahAdQKOnGGWd3t3yXKj-22" target="WIyWlLk6GJQsqaUBKTNV-10" edge="1">
          <mxGeometry width="50" height="50" relative="1" as="geometry">
            <mxPoint x="620" y="310" as="sourcePoint" />
            <mxPoint x="670" y="260" as="targetPoint" />
          </mxGeometry>
        </mxCell>
        <mxCell id="cGorxTFUrFWJMz6KMfGT-2" value="" style="endArrow=classic;html=1;fontFamily=Comic Sans MS;fontSize=12;exitX=1;exitY=0.5;exitDx=0;exitDy=0;entryX=0;entryY=0.5;entryDx=0;entryDy=0;" edge="1" parent="WIyWlLk6GJQsqaUBKTNV-1" target="cahAdQKOnGGWd3t3yXKj-0">
          <mxGeometry width="50" height="50" relative="1" as="geometry">
            <mxPoint x="320" y="95" as="sourcePoint" />
            <mxPoint x="440" y="240" as="targetPoint" />
          </mxGeometry>
        </mxCell>
        <mxCell id="cGorxTFUrFWJMz6KMfGT-3" value="1.田田作为企业管理员注册一个企业账号" style="rounded=1;whiteSpace=wrap;html=1;strokeWidth=2;fillWeight=4;hachureGap=8;hachureAngle=45;fillColor=#dae8fc;sketch=1;shadow=0;comic=1;fontFamily=Comic Sans MS;fontSize=12;align=center;strokeColor=#6c8ebf;" vertex="1" parent="WIyWlLk6GJQsqaUBKTNV-1">
          <mxGeometry x="200" y="65" width="120" height="60" as="geometry" />
        </mxCell>
        <mxCell id="cGorxTFUrFWJMz6KMfGT-4" value="2.田田填写好必要信息后提交申请" style="rounded=1;whiteSpace=wrap;html=1;strokeWidth=2;fillWeight=4;hachureGap=8;hachureAngle=45;fillColor=#dae8fc;sketch=1;shadow=0;comic=1;fontFamily=Comic Sans MS;fontSize=12;align=center;strokeColor=#6c8ebf;" vertex="1" parent="WIyWlLk6GJQsqaUBKTNV-1">
          <mxGeometry x="200" y="200" width="120" height="60" as="geometry" />
        </mxCell>
        <mxCell id="cGorxTFUrFWJMz6KMfGT-5" value="" style="endArrow=classic;html=1;fontFamily=Comic Sans MS;fontSize=12;exitX=1;exitY=0.5;exitDx=0;exitDy=0;entryX=0;entryY=0.5;entryDx=0;entryDy=0;" edge="1" parent="WIyWlLk6GJQsqaUBKTNV-1" source="cGorxTFUrFWJMz6KMfGT-4" target="cahAdQKOnGGWd3t3yXKj-10">
          <mxGeometry width="50" height="50" relative="1" as="geometry">
            <mxPoint x="390" y="310" as="sourcePoint" />
            <mxPoint x="440" y="260" as="targetPoint" />
            <Array as="points">
              <mxPoint x="360" y="230" />
              <mxPoint x="360" y="280" />
            </Array>
          </mxGeometry>
        </mxCell>
        <mxCell id="cGorxTFUrFWJMz6KMfGT-6" value="3.管理员审核通过则流程结束" style="rounded=1;whiteSpace=wrap;html=1;strokeWidth=2;fillWeight=4;hachureGap=8;hachureAngle=45;fillColor=#dae8fc;sketch=1;shadow=0;comic=1;fontFamily=Comic Sans MS;fontSize=12;align=center;strokeColor=#6c8ebf;" vertex="1" parent="WIyWlLk6GJQsqaUBKTNV-1">
          <mxGeometry x="200" y="406" width="120" height="60" as="geometry" />
        </mxCell>
        <mxCell id="cGorxTFUrFWJMz6KMfGT-7" value="" style="endArrow=classic;html=1;fontFamily=Comic Sans MS;fontSize=12;entryX=0;entryY=0.5;entryDx=0;entryDy=0;exitX=1;exitY=0.5;exitDx=0;exitDy=0;" edge="1" parent="WIyWlLk6GJQsqaUBKTNV-1" source="cGorxTFUrFWJMz6KMfGT-6" target="cahAdQKOnGGWd3t3yXKj-22">
          <mxGeometry width="50" height="50" relative="1" as="geometry">
            <mxPoint x="330" y="360" as="sourcePoint" />
            <mxPoint x="440" y="260" as="targetPoint" />
          </mxGeometry>
        </mxCell>
        <mxCell id="cGorxTFUrFWJMz6KMfGT-8" value="3.管理员审核不通过则退回修改，进入下一循环" style="rounded=1;whiteSpace=wrap;html=1;strokeWidth=2;fillWeight=4;hachureGap=8;hachureAngle=45;fillColor=#dae8fc;sketch=1;shadow=0;comic=1;fontFamily=Comic Sans MS;fontSize=12;align=center;strokeColor=#6c8ebf;" vertex="1" parent="WIyWlLk6GJQsqaUBKTNV-1">
          <mxGeometry x="600" y="250" width="120" height="60" as="geometry" />
        </mxCell>
        <mxCell id="cGorxTFUrFWJMz6KMfGT-9" value="" style="endArrow=classic;html=1;fontFamily=Comic Sans MS;fontSize=12;exitX=0;exitY=0.5;exitDx=0;exitDy=0;" edge="1" parent="WIyWlLk6GJQsqaUBKTNV-1" source="cGorxTFUrFWJMz6KMfGT-8">
          <mxGeometry width="50" height="50" relative="1" as="geometry">
            <mxPoint x="390" y="310" as="sourcePoint" />
            <mxPoint x="550" y="280" as="targetPoint" />
          </mxGeometry>
        </mxCell>
        <mxCell id="cGorxTFUrFWJMz6KMfGT-10" value="&lt;h1&gt;流程流转状态图&lt;br&gt;&lt;/h1&gt;&lt;p&gt;田田作为一个企业管理员创建企业用户并完成注册需要经过以下流程&lt;/p&gt;" style="text;html=1;strokeColor=none;fillColor=none;spacing=5;spacingTop=-20;whiteSpace=wrap;overflow=hidden;rounded=0;shadow=0;comic=1;fontFamily=Comic Sans MS;fontSize=12;align=center;" vertex="1" parent="WIyWlLk6GJQsqaUBKTNV-1">
          <mxGeometry x="570" y="40" width="190" height="120" as="geometry" />
        </mxCell>
      </root>
    </mxGraphModel>
  </diagram>
</mxfile>
